<svg xmlns="http://www.w3.org/2000/svg" width="1440" height="300" viewBox="0 0 1440 300" font-family="Inter,Vazirmatn,system-ui,sans-serif"><rect width="1440" height="300" fill="#0a0f1e"/><text x="40" y="28" font-size="14" font-weight="700" fill="#7f8797">FOOTER · dark theme · multi-column · newsletter · social · copyright</text><text x="80" y="80" font-size="20" font-weight="800" fill="#fff">ه Hanahoush</text><g font-size="13" font-weight="600" fill="#a2abbb"><text x="400" y="80">Company</text><text x="600" y="80">Services</text><text x="820" y="80">Resources</text><text x="1100" y="80">Newsletter</text></g><g font-size="12" fill="#7f8797"><text x="400" y="110">About</text><text x="400" y="132">Projects</text><text x="400" y="154">Contact</text><text x="400" y="176">Articles</text><text x="600" y="110">Enterprise SW</text><text x="600" y="132">ERP (hanRP)</text><text x="600" y="154">Odoo</text><text x="600" y="176">AI</text><text x="820" y="110">FAQ</text><text x="820" y="132">Privacy</text><text x="820" y="154">Terms</text><text x="820" y="176">Search</text></g><rect x="1100" y="100" width="280" height="36" rx="8" fill="#1b2434" stroke="#262f41"/><text x="1140" y="124" font-size="12" fill="#7f8797">Email address</text><rect x="1100" y="100" width="280" height="36" rx="8" fill="none"/><rect x="1390" y="100" width="0" height="36" fill="#4f46e5"/><text x="1240" y="164" font-size="32" fill="#262f41">○ ○ ○ ○</text><line x1="40" y1="220" x2="1400" y2="220" stroke="#1b2434"/><text x="80" y="248" font-size="12" fill="#7f8797">© 2025 Hanahoush. All rights reserved.</text><text x="1300" y="248" font-size="12" fill="#7f8797" text-anchor="end">Fa · En · Ar</text></svg>